<?xml version="1.0" encoding="UTF-8"?>
<svg id="Layer_1" xmlns="http://www.w3.org/2000/svg" version="1.1" xmlns:xlink="http://www.w3.org/1999/xlink" viewBox="0 0 593.3 354.4">
  <!-- Generator: Adobe Illustrator 29.5.0, SVG Export Plug-In . SVG Version: 2.1.0 Build 137)  -->
  <defs>
    <style>
      .st0 {
        fill: #fff;
      }

      .st1 {
        fill: #303342;
      }

      .st1, .st2 {
        fill-rule: evenodd;
      }

      .st2 {
        fill: url(#linear-gradient);
      }
    </style>
    <linearGradient id="linear-gradient" x1="163.7" y1="177.2" x2="285.5" y2="177.2" gradientUnits="userSpaceOnUse">
      <stop offset="0" stop-color="#bb9476"/>
      <stop offset="1" stop-color="#dcb798"/>
    </linearGradient>
  </defs>
  <polygon class="st1" points="0 0 593.3 0 593.3 354.4 0 354.4 0 0 0 0"/>
  <g>
    <path class="st0" d="M270.8,202.9c-1,0-1.7-.3-2.2-.8-.5-.5-.8-1.3-.8-2.3v-45.5c0-1,.3-1.8.8-2.3.5-.5,1.2-.8,2.2-.8s1.7.3,2.2.8c.5.5.8,1.3.8,2.3v45.5c0,1-.2,1.7-.7,2.3-.5.5-1.2.8-2.2.8Z"/>
    <path class="st0" d="M298.6,202.9c-.9,0-1.6-.3-2.1-.8-.5-.5-.7-1.2-.7-2.2v-45.7c0-1,.2-1.7.7-2.2.5-.5,1.1-.8,1.9-.8s1.3.1,1.7.4c.4.3.8.7,1.3,1.4l31.2,41.7h-1.7v-40.7c0-.9.2-1.6.7-2.1.5-.5,1.2-.8,2.1-.8s1.5.3,2,.8c.5.5.7,1.2.7,2.1v45.9c0,.9-.2,1.6-.6,2.1-.4.5-1,.8-1.8.8s-1.3-.1-1.7-.4c-.4-.3-.9-.7-1.4-1.4l-31.2-41.7h1.6v40.6c0,1-.2,1.7-.7,2.2-.5.5-1.1.8-2,.8Z"/>
    <path class="st0" d="M361.2,202.9c-1,0-1.7-.3-2.2-.8-.5-.5-.8-1.3-.8-2.3v-45.5c0-1,.3-1.8.8-2.3.5-.5,1.2-.8,2.2-.8s1.7.3,2.2.8c.5.5.8,1.3.8,2.3v45.5c0,1-.2,1.7-.7,2.3-.5.5-1.2.8-2.2.8Z"/>
    <path class="st0" d="M402.5,203.1c-2.2,0-4.4-.2-6.6-.6-2.2-.4-4.1-.9-6-1.7-1.8-.7-3.5-1.6-5-2.7-.6-.4-1-.9-1.2-1.5-.2-.6-.3-1.1-.1-1.7.1-.5.4-1,.7-1.4.4-.4.8-.6,1.3-.6.5,0,1.1.1,1.7.5,2.2,1.5,4.4,2.6,6.9,3.3,2.4.7,5.2,1,8.2,1s7.5-.8,9.6-2.4c2.1-1.6,3.1-3.7,3.1-6.4s-.8-3.8-2.3-5.1c-1.5-1.2-4-2.2-7.6-2.9l-7.5-1.5c-4.5-1-7.8-2.5-10.1-4.7-2.2-2.2-3.3-5.1-3.3-8.7s.5-4.3,1.4-6.1c.9-1.8,2.2-3.4,3.8-4.7,1.6-1.3,3.6-2.3,5.8-3.1,2.2-.7,4.7-1.1,7.5-1.1s5.8.4,8.4,1.3c2.6.8,5,2.1,7.1,3.8.5.4.9.9,1.1,1.5.2.6.2,1.1,0,1.6-.1.5-.4.9-.8,1.3-.4.3-.8.5-1.4.6-.5,0-1.2-.1-1.8-.6-1.9-1.4-3.9-2.5-5.9-3.1-2.1-.6-4.3-1-6.8-1s-4.7.4-6.6,1.1c-1.8.8-3.3,1.9-4.3,3.3-1,1.5-1.5,3.1-1.5,5.1s.7,4.1,2.1,5.5c1.4,1.3,3.7,2.3,6.9,2.9l7.5,1.6c4.8,1,8.4,2.5,10.7,4.6,2.3,2,3.5,4.8,3.5,8.3s-.4,4-1.3,5.8c-.9,1.8-2.1,3.3-3.7,4.6-1.6,1.3-3.6,2.2-5.9,2.9-2.3.7-4.9,1-7.7,1Z"/>
  </g>
  <path class="st2" d="M273.8,163.9v8.8c4,5.8,6,12.5,6,20v1.6c0,9.9-3.5,18.3-10.4,25.3-7,7-15.5,10.6-25.3,10.6s-18.2-3.5-25.3-10.6c-7-6.9-10.5-15.4-10.5-25.3v-14.7h32.5v20.7c0,.9.3,1.5.9,2.1.5.5,1.2.8,1.9.8s1.4-.3,2-.8c.5-.5.8-1.2.8-2.1v-40.1c0-11.4-4-21.2-12.1-29.3-8.1-8.1-17.8-12.1-29.3-12.1s-21.2,4-29.3,12.1c-8.1,8.1-12.2,17.8-12.2,29.3v1.6c0,11.4,4.1,21.2,12.2,29.3s6.2,5.4,9.6,7.3c4.6,2.5,7-2.5,2.5-5-2.9-1.6-5.7-3.7-8.2-6.3-6.9-6.9-10.4-15.4-10.4-25.3v-1.6c0-9.9,3.5-18.3,10.4-25.3,7-7,15.5-10.6,25.3-10.6s18.2,3.5,25.3,10.6c7,6.9,10.5,15.4,10.5,25.3v14.4h-32.5v-20.4c0-.9-.3-1.5-.9-2.1-.5-.5-1.2-.8-1.9-.8s-1.4.3-2,.8c-.5.5-.8,1.2-.8,2.1v40.1c0,11.4,4,21.2,12.1,29.3,8.1,8.1,17.8,12.1,29.3,12.1s21.2-4,29.3-12.1c8.1-8.1,12.2-17.8,12.2-29.3v-1.6c0-11.2-3.9-20.8-11.7-28.8Z"/>
</svg>